999
dxfrw 0.5.11
0
SECTION
2
HEADER
9
$ACADVER
1
AC1021
9
$HANDSEED
5
20000
9
$DWGCODEPAGE
3
ANSI_1252
9
$INSBASE
10
0
20
0
30
0
9
$EXTMIN
10
-1.36854279805e-15
20
-2.44929359829e-15
30
0
9
$EXTMAX
10
143.055560698
20
102.7
30
0
9
$LIMMIN
10
0
20
0
9
$LIMMAX
10
420
20
297
9
$ORTHOMODE
70
0
9
$LTSCALE
40
1
9
$TEXTSTYLE
7
STANDARD
9
$CLAYER
8
legend
9
$DIMASZ
40
5
9
$DIMLFAC
40
1
9
$DIMSCALE
40
1
9
$DIMEXO
40
0.625
9
$DIMEXE
40
1.25
9
$DIMTXT
40
1
9
$DIMTSZ
40
0
9
$DIMAUNIT
70
0
9
$DIMADEC
70
2
9
$DIMLUNIT
70
2
9
$DIMSTYLE
2
STANDARD
9
$DIMGAP
40
0.625
9
$DIMTIH
70
0
9
$LUNITS
70
2
9
$LUPREC
70
4
9
$AUNITS
70
0
9
$AUPREC
70
2
9
$SPLINESEGS
70
8
9
$GRIDMODE
70
1
9
$SNAPSTYLE
70
0
9
$GRIDUNIT
10
0
20
0
9
$PINSBASE
10
0
20
0
30
0
9
$PLIMMIN
10
0
20
0
9
$PLIMMAX
10
210
20
297
9
$INSUNITS
70
4
9
$PSVPSCALE
40
1
0
ENDSEC
0
SECTION
2
CLASSES
0
ENDSEC
0
SECTION
2
TABLES
0
TABLE
2
VPORT
5
8
330
0
100
AcDbSymbolTable
70
1
0
VPORT
5
31
330
2
100
AcDbSymbolTableRecord
100
AcDbViewportTableRecord
2
*ACTIVE
70
0
10
0
20
0
11
1
21
1
12
106.375
22
54.125
13
0
23
0
14
10
24
10
15
10
25
10
16
0
26
0
36
1
17
0
27
0
37
0
40
125.25
41
2.27744510978
42
50
43
0
44
0
50
0
51
0
71
0
72
100
73
1
74
3
75
0
76
1
77
0
78
0
281
0
65
1
110
0
120
0
130
0
111
1
121
0
131
0
112
0
122
1
132
0
79
0
146
0
348
10020
60
7
61
5
292
1
282
1
141
0
142
0
63
250
421
3358443
0
ENDTAB
0
TABLE
2
LTYPE
5
5
330
0
100
AcDbSymbolTable
70
4
0
LTYPE
5
14
330
5
100
AcDbSymbolTableRecord
100
AcDbLinetypeTableRecord
2
ByBlock
70
0
3

72
65
73
0
40
0
0
LTYPE
5
15
330
5
100
AcDbSymbolTableRecord
100
AcDbLinetypeTableRecord
2
ByLayer
70
0
3

72
65
73
0
40
0
0
LTYPE
5
16
330
5
100
AcDbSymbolTableRecord
100
AcDbLinetypeTableRecord
2
Continuous
70
0
3
Solid line
72
65
73
0
40
0
0
LTYPE
5
32
330
5
100
AcDbSymbolTableRecord
100
AcDbLinetypeTableRecord
2
DOT
70
0
3
Dot . . . . . . . . . . . . . . . . . . . . . .
72
65
73
2
40
6.35
49
0
74
0
49
-6.35
74
0
0
LTYPE
5
33
330
5
100
AcDbSymbolTableRecord
100
AcDbLinetypeTableRecord
2
DOT2
70
0
3
Dot (.5x) .....................................
72
65
73
2
40
3.175
49
0
74
0
49
-3.175
74
0
0
LTYPE
5
34
330
5
100
AcDbSymbolTableRecord
100
AcDbLinetypeTableRecord
2
DOTX2
70
0
3
Dot (2x) .  .  .  .  .  .  .  .  .  .  .  .  .
72
65
73
2
40
12.7
49
0
74
0
49
-12.7
74
0
0
LTYPE
5
35
330
5
100
AcDbSymbolTableRecord
100
AcDbLinetypeTableRecord
2
DASHED
70
0
3
Dot . . . . . . . . . . . . . . . . . . . . . .
72
65
73
2
40
19.05
49
12.7
74
0
49
-6.35
74
0
0
LTYPE
5
36
330
5
100
AcDbSymbolTableRecord
100
AcDbLinetypeTableRecord
2
DASHED2
70
0
3
Dashed (.5x) _ _ _ _ _ _ _ _ _ _ _ _ _ _ _ _ _
72
65
73
2
40
9.525
49
6.35
74
0
49
-3.175
74
0
0
LTYPE
5
37
330
5
100
AcDbSymbolTableRecord
100
AcDbLinetypeTableRecord
2
DASHEDX2
70
0
3
Dashed (2x) ____  ____  ____  ____  ____  ___
72
65
73
2
40
38.1
49
25.4
74
0
49
-12.7
74
0
0
LTYPE
5
38
330
5
100
AcDbSymbolTableRecord
100
AcDbLinetypeTableRecord
2
DASHDOT
70
0
3
Dash dot __ . __ . __ . __ . __ . __ . __ . __
72
65
73
4
40
25.4
49
12.7
74
0
49
-6.35
74
0
49
0
74
0
49
-6.35
74
0
0
LTYPE
5
39
330
5
100
AcDbSymbolTableRecord
100
AcDbLinetypeTableRecord
2
DASHDOT2
70
0
3
Dash dot (.5x) _._._._._._._._._._._._._._._.
72
65
73
4
40
12.7
49
6.35
74
0
49
-3.175
74
0
49
0
74
0
49
-3.175
74
0
0
LTYPE
5
3A
330
5
100
AcDbSymbolTableRecord
100
AcDbLinetypeTableRecord
2
DASHDOTX2
70
0
3
Dash dot (2x) ____  .  ____  .  ____  .  ___
72
65
73
4
40
50.8
49
25.4
74
0
49
-12.7
74
0
49
0
74
0
49
-12.7
74
0
0
LTYPE
5
3B
330
5
100
AcDbSymbolTableRecord
100
AcDbLinetypeTableRecord
2
DIVIDE
70
0
3
Divide ____ . . ____ . . ____ . . ____ . . ____
72
65
73
6
40
31.75
49
12.7
74
0
49
-6.35
74
0
49
0
74
0
49
-6.35
74
0
49
0
74
0
49
-6.35
74
0
0
LTYPE
5
3C
330
5
100
AcDbSymbolTableRecord
100
AcDbLinetypeTableRecord
2
DIVIDE2
70
0
3
Divide (.5x) __..__..__..__..__..__..__..__.._
72
65
73
6
40
15.875
49
6.35
74
0
49
-3.175
74
0
49
0
74
0
49
-3.175
74
0
49
0
74
0
49
-3.175
74
0
0
LTYPE
5
3D
330
5
100
AcDbSymbolTableRecord
100
AcDbLinetypeTableRecord
2
DIVIDEX2
70
0
3
Divide (2x) ________  .  .  ________  .  .  _
72
65
73
6
40
63.5
49
25.4
74
0
49
-12.7
74
0
49
0
74
0
49
-12.7
74
0
49
0
74
0
49
-12.7
74
0
0
LTYPE
5
3E
330
5
100
AcDbSymbolTableRecord
100
AcDbLinetypeTableRecord
2
BORDER
70
0
3
Border __ __ . __ __ . __ __ . __ __ . __ __ .
72
65
73
6
40
44.45
49
12.7
74
0
49
-6.35
74
0
49
12.7
74
0
49
-6.35
74
0
49
0
74
0
49
-6.35
74
0
0
LTYPE
5
3F
330
5
100
AcDbSymbolTableRecord
100
AcDbLinetypeTableRecord
2
BORDER2
70
0
3
Border (.5x) __.__.__.__.__.__.__.__.__.__.__.
72
65
73
6
40
22.225
49
6.35
74
0
49
-3.175
74
0
49
6.35
74
0
49
-3.175
74
0
49
0
74
0
49
-3.175
74
0
0
LTYPE
5
40
330
5
100
AcDbSymbolTableRecord
100
AcDbLinetypeTableRecord
2
BORDERX2
70
0
3
Border (2x) ____  ____  .  ____  ____  .  ___
72
65
73
6
40
88.9
49
25.4
74
0
49
-12.7
74
0
49
25.4
74
0
49
-12.7
74
0
49
0
74
0
49
-12.7
74
0
0
LTYPE
5
41
330
5
100
AcDbSymbolTableRecord
100
AcDbLinetypeTableRecord
2
CENTER
70
0
3
Center ____ _ ____ _ ____ _ ____ _ ____ _ ____
72
65
73
4
40
50.8
49
31.75
74
0
49
-6.35
74
0
49
6.35
74
0
49
-6.35
74
0
0
LTYPE
5
42
330
5
100
AcDbSymbolTableRecord
100
AcDbLinetypeTableRecord
2
CENTER2
70
0
3
Center (.5x) ___ _ ___ _ ___ _ ___ _ ___ _ ___
72
65
73
4
40
28.575
49
19.05
74
0
49
-3.175
74
0
49
3.175
74
0
49
-3.175
74
0
0
LTYPE
5
43
330
5
100
AcDbSymbolTableRecord
100
AcDbLinetypeTableRecord
2
CENTERX2
70
0
3
Center (2x) ________  __  ________  __  _____
72
65
73
4
40
101.6
49
63.5
74
0
49
-12.7
74
0
49
12.7
74
0
49
-12.7
74
0
0
ENDTAB
0
TABLE
2
LAYER
5
2
330
0
100
AcDbSymbolTable
70
1
0
LAYER
5
10
330
2
100
AcDbSymbolTableRecord
100
AcDbLayerTableRecord
2
0
70
1
62
7
6
CONTINUOUS
370
0
390
F
0
LAYER
5
44
330
2
100
AcDbSymbolTableRecord
100
AcDbLayerTableRecord
2
border
70
0
62
5
6
CONTINUOUS
370
0
390
F
0
LAYER
5
45
330
2
100
AcDbSymbolTableRecord
100
AcDbLayerTableRecord
2
cotes
70
1
62
4
6
CONTINUOUS
370
0
390
F
0
LAYER
5
46
330
2
100
AcDbSymbolTableRecord
100
AcDbLayerTableRecord
2
dots
70
1
62
1
6
CONTINUOUS
370
0
390
F
0
LAYER
5
47
330
2
100
AcDbSymbolTableRecord
100
AcDbLayerTableRecord
2
legend
70
0
62
3
6
CONTINUOUS
370
0
390
F
0
LAYER
5
48
330
2
100
AcDbSymbolTableRecord
100
AcDbLayerTableRecord
2
placement
70
1
62
3
6
CONTINUOUS
370
0
390
F
0
LAYER
5
49
330
2
100
AcDbSymbolTableRecord
100
AcDbLayerTableRecord
2
points
70
0
62
2
6
CONTINUOUS
370
0
390
F
0
ENDTAB
0
TABLE
2
STYLE
5
3
330
0
100
AcDbSymbolTable
70
3
0
STYLE
5
4A
330
2
100
AcDbSymbolTableRecord
100
AcDbTextStyleTableRecord
2
standard
70
0
40
0
41
1
50
0
71
0
42
1
3
standard
4

0
ENDTAB
0
TABLE
2
VIEW
5
6
330
0
100
AcDbSymbolTable
70
0
0
ENDTAB
0
TABLE
2
UCS
5
7
330
0
100
AcDbSymbolTable
70
0
0
ENDTAB
0
TABLE
2
APPID
5
9
330
0
100
AcDbSymbolTable
70
1
0
APPID
5
12
330
9
100
AcDbSymbolTableRecord
100
AcDbRegAppTableRecord
2
ACAD
70
0
0
ENDTAB
0
TABLE
2
DIMSTYLE
5
A
330
0
100
AcDbSymbolTable
70
1
100
AcDbDimStyleTable
71
1
0
DIMSTYLE
105
4B
330
A
100
AcDbSymbolTableRecord
100
AcDbDimStyleTableRecord
2
Standard
70
0
40
1
41
5
42
0.625
43
0.38
44
1.25
45
0
46
0
47
0
48
0
140
1
141
0.09
142
0
143
25.4
144
1
145
0
146
1
147
0.625
148
0
71
0
72
0
73
0
74
1
75
0
76
0
77
0
78
0
79
0
170
0
171
2
172
0
173
0
174
0
175
0
176
0
177
0
178
0
179
0
271
4
272
4
273
2
274
2
275
0
276
0
277
2
278
46
279
0
280
0
281
0
282
0
283
1
284
0
285
0
286
0
288
0
289
3
340
Standard
341

371
-2
372
-2
0
ENDTAB
0
TABLE
2
BLOCK_RECORD
5
1
330
0
100
AcDbSymbolTable
70
2
0
BLOCK_RECORD
5
1F
330
1
100
AcDbSymbolTableRecord
100
AcDbBlockTableRecord
2
*Model_Space
70
0
280
1
281
0
0
BLOCK_RECORD
5
1E
330
1
100
AcDbSymbolTableRecord
100
AcDbBlockTableRecord
2
*Paper_Space
70
0
280
1
281
0
0
BLOCK_RECORD
5
4C
330
1
100
AcDbSymbolTableRecord
100
AcDbBlockTableRecord
2
*D10
70
0
280
1
281
0
0
BLOCK_RECORD
5
4F
330
1
100
AcDbSymbolTableRecord
100
AcDbBlockTableRecord
2
*D4
70
0
280
1
281
0
0
BLOCK_RECORD
5
52
330
1
100
AcDbSymbolTableRecord
100
AcDbBlockTableRecord
2
*D6
70
0
280
1
281
0
0
BLOCK_RECORD
5
55
330
1
100
AcDbSymbolTableRecord
100
AcDbBlockTableRecord
2
*D8
70
0
280
1
281
0
0
BLOCK_RECORD
5
58
330
1
100
AcDbSymbolTableRecord
100
AcDbBlockTableRecord
2
*D9
70
0
280
1
281
0
0
BLOCK_RECORD
5
5B
330
1
100
AcDbSymbolTableRecord
100
AcDbBlockTableRecord
2
*D5
70
0
280
1
281
0
0
BLOCK_RECORD
5
5E
330
1
100
AcDbSymbolTableRecord
100
AcDbBlockTableRecord
2
*D3
70
0
280
1
281
0
0
BLOCK_RECORD
5
61
330
1
100
AcDbSymbolTableRecord
100
AcDbBlockTableRecord
2
*D1
70
0
280
1
281
0
0
BLOCK_RECORD
5
64
330
1
100
AcDbSymbolTableRecord
100
AcDbBlockTableRecord
2
*D11
70
0
280
1
281
0
0
BLOCK_RECORD
5
67
330
1
100
AcDbSymbolTableRecord
100
AcDbBlockTableRecord
2
*D2
70
0
280
1
281
0
0
BLOCK_RECORD
5
6A
330
1
100
AcDbSymbolTableRecord
100
AcDbBlockTableRecord
2
*D7
70
0
280
1
281
0
0
ENDTAB
0
ENDSEC
0
SECTION
2
BLOCKS
0
BLOCK
5
20
330
1F
100
AcDbEntity
8
0
100
AcDbBlockBegin
2
*Model_Space
70
0
10
0
20
0
30
0
3
*Model_Space
1

0
ENDBLK
5
21
330
1F
100
AcDbEntity
8
0
100
AcDbBlockEnd
0
BLOCK
5
1C
330
1B
100
AcDbEntity
8
0
100
AcDbBlockBegin
2
*Paper_Space
70
0
10
0
20
0
30
0
3
*Paper_Space
1

0
ENDBLK
5
1D
330
1F
100
AcDbEntity
8
0
100
AcDbBlockEnd
0
BLOCK
5
4D
330
4C
100
AcDbEntity
8
0
100
AcDbBlockBegin
2
*D10
70
1
10
0
20
0
3
*D10
1

0
ENDBLK
5
4E
330
4C
100
AcDbEntity
8
0
100
AcDbBlockEnd
0
BLOCK
5
50
330
4F
100
AcDbEntity
8
0
100
AcDbBlockBegin
2
*D4
70
1
10
0
20
0
3
*D4
1

0
LINE
5
6D
100
AcDbEntity
8
cotes
6
CONTINUOUS
62
7
370
0
100
AcDbLine
10
5
20
103.325
11
5
21
121.25
0
LINE
5
6E
100
AcDbEntity
8
cotes
6
CONTINUOUS
62
7
370
0
100
AcDbLine
10
10
20
103.325
11
10
21
121.25
0
LINE
5
6F
100
AcDbEntity
8
cotes
6
CONTINUOUS
62
7
370
0
100
AcDbLine
10
-5
20
120
11
20
21
120
0
SOLID
5
70
100
AcDbEntity
8
cotes
6
CONTINUOUS
62
7
370
0
100
AcDbTrace
10
5
20
120
30
0
11
8.881784197e-16
21
119.167430684
31
0
12
8.881784197e-16
22
120.832569316
32
0
13
8.881784197e-16
23
120.832569316
33
0
0
SOLID
5
71
100
AcDbEntity
8
cotes
6
CONTINUOUS
62
7
370
0
100
AcDbTrace
10
10
20
120
30
0
11
15
21
120.832569316
31
0
12
15
22
119.167430684
32
0
13
15
23
119.167430684
33
0
0
MTEXT
5
72
100
AcDbEntity
8
cotes
6
CONTINUOUS
62
7
370
0
100
AcDbMText
10
7.5
20
121.125
30
0
40
1
41
0.444444444445
71
5
72
1
1
5
7
standard
210
0
220
0
230
1
50
0
73
2
44
1
0
ENDBLK
5
51
330
4F
100
AcDbEntity
8
0
100
AcDbBlockEnd
0
BLOCK
5
53
330
52
100
AcDbEntity
8
0
100
AcDbBlockBegin
2
*D6
70
1
10
0
20
0
3
*D6
1

0
LINE
5
73
100
AcDbEntity
8
cotes
6
CONTINUOUS
62
7
370
0
100
AcDbLine
10
44.5
20
-0.625
11
44.5
21
-11.25
0
LINE
5
74
100
AcDbEntity
8
cotes
6
CONTINUOUS
62
7
370
0
100
AcDbLine
10
49.5
20
-0.625
11
49.5
21
-11.25
0
LINE
5
75
100
AcDbEntity
8
cotes
6
CONTINUOUS
62
7
370
0
100
AcDbLine
10
34.5
20
-10
11
59.5
21
-10
0
SOLID
5
76
100
AcDbEntity
8
cotes
6
CONTINUOUS
62
7
370
0
100
AcDbTrace
10
44.5
20
-10
30
0
11
39.5
21
-10.8325693155
31
0
12
39.5
22
-9.16743068445
32
0
13
39.5
23
-9.16743068445
33
0
0
SOLID
5
77
100
AcDbEntity
8
cotes
6
CONTINUOUS
62
7
370
0
100
AcDbTrace
10
49.5
20
-10
30
0
11
54.5
21
-9.16743068445
31
0
12
54.5
22
-10.8325693155
32
0
13
54.5
23
-10.8325693155
33
0
0
MTEXT
5
78
100
AcDbEntity
8
cotes
6
CONTINUOUS
62
7
370
0
100
AcDbMText
10
47
20
-8.875
30
0
40
1
41
0.444444444445
71
5
72
1
1
5
7
standard
210
0
220
0
230
1
50
360
73
2
44
1
0
ENDBLK
5
54
330
52
100
AcDbEntity
8
0
100
AcDbBlockEnd
0
BLOCK
5
56
330
55
100
AcDbEntity
8
0
100
AcDbBlockBegin
2
*D8
70
1
10
0
20
0
3
*D8
1

0
LINE
5
79
100
AcDbEntity
8
cotes
6
CONTINUOUS
62
7
370
0
100
AcDbLine
10
4.375
20
96.9
11
-4.25
21
96.9
0
LINE
5
7A
100
AcDbEntity
8
cotes
6
CONTINUOUS
62
7
370
0
100
AcDbLine
10
4.375
20
93.6
11
-4.25
21
93.6
0
LINE
5
7B
100
AcDbEntity
8
cotes
6
CONTINUOUS
62
7
370
0
100
AcDbLine
10
-3
20
106.9
11
-3
21
83.6
0
SOLID
5
7C
100
AcDbEntity
8
cotes
6
CONTINUOUS
62
7
370
0
100
AcDbTrace
10
-3
20
96.9
30
0
11
-3.83256931555
21
101.9
31
0
12
-2.16743068445
22
101.9
32
0
13
-2.16743068445
23
101.9
33
0
0
SOLID
5
7D
100
AcDbEntity
8
cotes
6
CONTINUOUS
62
7
370
0
100
AcDbTrace
10
-3
20
93.6
30
0
11
-2.16743068445
21
88.6
31
0
12
-3.83256931555
22
88.6
32
0
13
-3.83256931555
23
88.6
33
0
0
MTEXT
5
7E
100
AcDbEntity
8
cotes
6
CONTINUOUS
62
7
370
0
100
AcDbMText
10
-4.125
20
95.25
30
0
40
1
41
1.55555555556
71
5
72
1
1
3.3
7
standard
210
0
220
0
230
1
50
90
73
2
44
1
0
ENDBLK
5
57
330
55
100
AcDbEntity
8
0
100
AcDbBlockEnd
0
BLOCK
5
59
330
58
100
AcDbEntity
8
0
100
AcDbBlockBegin
2
*D9
70
1
10
0
20
0
3
*D9
1

0
LINE
5
7F
100
AcDbEntity
8
legend
6
CONTINUOUS
62
7
370
0
100
AcDbLine
10
10
20
39.15
11
40
21
60
0
LINE
5
80
100
AcDbEntity
8
legend
6
CONTINUOUS
62
7
370
0
100
AcDbLine
10
40
20
60
11
49
21
66
0
LINE
5
81
100
AcDbEntity
8
legend
6
CONTINUOUS
62
7
370
0
100
AcDbLine
10
49
20
66
11
49
21
66
0
SOLID
5
82
100
AcDbEntity
8
legend
6
CONTINUOUS
62
7
370
0
100
AcDbTrace
10
10
20
39.15
30
0
11
13.6306306249
21
42.6871871495
31
0
12
14.5809311408
22
41.3198482777
32
0
13
14.5809311408
23
41.3198482777
33
0
0
ENDBLK
5
5A
330
58
100
AcDbEntity
8
0
100
AcDbBlockEnd
0
BLOCK
5
5C
330
5B
100
AcDbEntity
8
0
100
AcDbBlockBegin
2
*D5
70
1
10
0
20
0
3
*D5
1

0
LINE
5
83
100
AcDbEntity
8
cotes
6
CONTINUOUS
62
7
370
0
100
AcDbLine
10
-1.1481063742e-16
20
-0.625
11
-2.06659147356e-15
21
-11.25
0
LINE
5
84
100
AcDbEntity
8
cotes
6
CONTINUOUS
62
7
370
0
100
AcDbLine
10
44.5
20
-0.625
11
44.5
21
-11.25
0
LINE
5
85
100
AcDbEntity
8
cotes
6
CONTINUOUS
62
7
370
0
100
AcDbLine
10
-1.83697019872e-15
20
-10
11
44.5
21
-10
0
SOLID
5
86
100
AcDbEntity
8
cotes
6
CONTINUOUS
62
7
370
0
100
AcDbTrace
10
-1.83697019872e-15
20
-10
30
0
11
5
21
-9.16743068445
31
0
12
5
22
-10.8325693155
32
0
13
5
23
-10.8325693155
33
0
0
SOLID
5
87
100
AcDbEntity
8
cotes
6
CONTINUOUS
62
7
370
0
100
AcDbTrace
10
44.5
20
-10
30
0
11
39.5
21
-10.8325693155
31
0
12
39.5
22
-9.16743068445
32
0
13
39.5
23
-9.16743068445
33
0
0
MTEXT
5
88
100
AcDbEntity
8
cotes
6
CONTINUOUS
62
7
370
0
100
AcDbMText
10
22.25
20
-8.875
30
0
40
1
41
2.55555555556
71
5
72
1
1
44.5
7
standard
210
0
220
0
230
1
50
0
73
2
44
1
0
ENDBLK
5
5D
330
5B
100
AcDbEntity
8
0
100
AcDbBlockEnd
0
BLOCK
5
5F
330
5E
100
AcDbEntity
8
0
100
AcDbBlockBegin
2
*D3
70
1
10
0
20
0
3
*D3
1

0
LINE
5
89
100
AcDbEntity
8
cotes
6
CONTINUOUS
62
7
370
0
100
AcDbLine
10
3.82702124734e-17
20
103.325
11
5.23536506635e-16
21
111.25
0
LINE
5
8A
100
AcDbEntity
8
cotes
6
CONTINUOUS
62
7
370
0
100
AcDbLine
10
5
20
103.325
11
5
21
111.25
0
LINE
5
8B
100
AcDbEntity
8
cotes
6
CONTINUOUS
62
7
370
0
100
AcDbLine
10
-10
20
110
11
15
21
110
0
SOLID
5
8C
100
AcDbEntity
8
cotes
6
CONTINUOUS
62
7
370
0
100
AcDbTrace
10
4.46996081689e-16
20
110
30
0
11
-5
21
109.167430684
31
0
12
-5
22
110.832569316
32
0
13
-5
23
110.832569316
33
0
0
SOLID
5
8D
100
AcDbEntity
8
cotes
6
CONTINUOUS
62
7
370
0
100
AcDbTrace
10
5
20
110
30
0
11
10
21
110.832569316
31
0
12
10
22
109.167430684
32
0
13
10
23
109.167430684
33
0
0
MTEXT
5
8E
100
AcDbEntity
8
cotes
6
CONTINUOUS
62
7
370
0
100
AcDbMText
10
2.5
20
111.125
30
0
40
1
41
0.444444444445
71
5
72
1
1
5
7
standard
210
0
220
0
230
1
50
0
73
2
44
1
0
ENDBLK
5
60
330
5E
100
AcDbEntity
8
0
100
AcDbBlockEnd
0
BLOCK
5
62
330
61
100
AcDbEntity
8
0
100
AcDbBlockBegin
2
*D1
70
1
10
0
20
0
3
*D1
1

0
LINE
5
8F
100
AcDbEntity
8
cotes
6
CONTINUOUS
62
7
370
0
100
AcDbLine
10
-0.625
20
102.7
11
-21.25
21
102.7
0
LINE
5
90
100
AcDbEntity
8
cotes
6
CONTINUOUS
62
7
370
0
100
AcDbLine
10
-0.625
20
7.65404249467e-17
11
-21.25
21
2.60237444819e-15
0
LINE
5
91
100
AcDbEntity
8
cotes
6
CONTINUOUS
62
7
370
0
100
AcDbLine
10
-20
20
102.7
11
-20
21
2.44929359829e-15
0
SOLID
5
92
100
AcDbEntity
8
cotes
6
CONTINUOUS
62
7
370
0
100
AcDbTrace
10
-20
20
102.7
30
0
11
-19.1674306845
21
97.7
31
0
12
-20.8325693155
22
97.7
32
0
13
-20.8325693155
23
97.7
33
0
0
SOLID
5
93
100
AcDbEntity
8
cotes
6
CONTINUOUS
62
7
370
0
100
AcDbTrace
10
-20
20
2.44929359829e-15
30
0
11
-20.8325693155
21
5
31
0
12
-19.1674306845
22
5
32
0
13
-19.1674306845
23
5
33
0
0
MTEXT
5
94
100
AcDbEntity
8
cotes
6
CONTINUOUS
62
7
370
0
100
AcDbMText
10
-21.125
20
51.35
30
0
40
1
41
2.88888888889
71
5
72
1
1
102.7
7
standard
210
0
220
0
230
1
50
90
73
2
44
1
0
ENDBLK
5
63
330
61
100
AcDbEntity
8
0
100
AcDbBlockEnd
0
BLOCK
5
65
330
64
100
AcDbEntity
8
0
100
AcDbBlockBegin
2
*D11
70
1
10
0
20
0
3
*D11
1

0
LINE
5
95
100
AcDbEntity
8
legend
6
CONTINUOUS
62
7
370
0
100
AcDbLine
10
10
20
55.65
11
49
21
66
0
SOLID
5
96
100
AcDbEntity
8
legend
6
CONTINUOUS
62
7
370
0
100
AcDbTrace
10
10
20
55.65
30
0
11
14.6191550826
21
57.7372417176
31
0
12
15.0462724267
22
56.1278140445
32
0
13
15.0462724267
23
56.1278140445
33
0
0
LINE
5
97
100
AcDbEntity
8
legend
6
CONTINUOUS
62
7
370
0
100
AcDbLine
10
49
20
66
11
49
21
66
0
LINE
5
98
100
AcDbEntity
8
legend
6
CONTINUOUS
62
7
370
0
100
AcDbLine
10
49
20
66
11
49
21
66
0
ENDBLK
5
66
330
64
100
AcDbEntity
8
0
100
AcDbBlockEnd
0
BLOCK
5
68
330
67
100
AcDbEntity
8
0
100
AcDbBlockBegin
2
*D2
70
1
10
0
20
0
3
*D2
1

0
LINE
5
99
100
AcDbEntity
8
dots
6
CONTINUOUS
62
7
370
0
100
AcDbLine
10
3.82702124734e-17
20
103.325
11
1.13585990621e-15
21
121.25
0
LINE
5
9A
100
AcDbEntity
8
dots
6
CONTINUOUS
62
7
370
0
100
AcDbLine
10
94
20
103.325
11
94
21
121.25
0
LINE
5
9B
100
AcDbEntity
8
dots
6
CONTINUOUS
62
7
370
0
100
AcDbLine
10
1.05931948126e-15
20
120
11
94
21
120
0
SOLID
5
9C
100
AcDbEntity
8
dots
6
CONTINUOUS
62
7
370
0
100
AcDbTrace
10
1.05931948126e-15
20
120
30
0
11
5
21
120.832569316
31
0
12
5
22
119.167430684
32
0
13
5
23
119.167430684
33
0
0
SOLID
5
9D
100
AcDbEntity
8
dots
6
CONTINUOUS
62
7
370
0
100
AcDbTrace
10
94
20
120
30
0
11
89
21
119.167430684
31
0
12
89
22
120.832569316
32
0
13
89
23
120.832569316
33
0
0
MTEXT
5
9E
100
AcDbEntity
8
dots
6
CONTINUOUS
62
7
370
0
100
AcDbMText
10
47
20
121.125
30
0
40
1
41
1.33333333333
71
5
72
1
1
94
7
standard
210
0
220
0
230
1
50
0
73
2
44
1
0
ENDBLK
5
69
330
67
100
AcDbEntity
8
0
100
AcDbBlockEnd
0
BLOCK
5
6B
330
6A
100
AcDbEntity
8
0
100
AcDbBlockBegin
2
*D7
70
1
10
0
20
0
3
*D7
1

0
LINE
5
9F
100
AcDbEntity
8
cotes
6
CONTINUOUS
62
7
370
0
100
AcDbLine
10
9.375
20
2.85
11
-4.25
21
2.85
0
LINE
5
A0
100
AcDbEntity
8
cotes
6
CONTINUOUS
62
7
370
0
100
AcDbLine
10
9.375
20
7.65404249467e-17
11
-4.25
21
1.74512168878e-15
0
LINE
5
A1
100
AcDbEntity
8
cotes
6
CONTINUOUS
62
7
370
0
100
AcDbLine
10
-3
20
12.85
11
-3
21
-10
0
SOLID
5
A2
100
AcDbEntity
8
cotes
6
CONTINUOUS
62
7
370
0
100
AcDbTrace
10
-3
20
2.85
30
0
11
-3.83256931555
21
7.85
31
0
12
-2.16743068445
22
7.85
32
0
13
-2.16743068445
23
7.85
33
0
0
SOLID
5
A3
100
AcDbEntity
8
cotes
6
CONTINUOUS
62
7
370
0
100
AcDbTrace
10
-3
20
1.59204083889e-15
30
0
11
-2.16743068445
21
-5
31
0
12
-3.83256931555
22
-5
32
0
13
-3.83256931555
23
-5
33
0
0
MTEXT
5
A4
100
AcDbEntity
8
cotes
6
CONTINUOUS
62
7
370
0
100
AcDbMText
10
-4.125
20
1.425
30
0
40
1
41
2.33333333333
71
5
72
1
1
2.85
7
standard
210
0
220
0
230
1
50
90
73
2
44
1
0
ENDBLK
5
6C
330
6A
100
AcDbEntity
8
0
100
AcDbBlockEnd
0
ENDSEC
0
SECTION
2
ENTITIES
0
LINE
5
A5
100
AcDbEntity
8
0
6
ByLayer
62
256
370
-1
100
AcDbLine
10
0
20
0
11
94
21
0
0
LINE
5
A6
100
AcDbEntity
8
0
6
ByLayer
62
256
370
-1
100
AcDbLine
10
94
20
0
11
94
21
102.7
0
LINE
5
A7
100
AcDbEntity
8
0
6
ByLayer
62
256
370
-1
100
AcDbLine
10
94
20
102.7
11
0
21
102.7
0
LINE
5
A8
100
AcDbEntity
8
0
6
ByLayer
62
256
370
-1
100
AcDbLine
10
0
20
102.7
11
0
21
0
0
LINE
5
A9
100
AcDbEntity
8
placement
6
ByLayer
62
256
370
-1
100
AcDbLine
10
47
20
102.7
11
47
21
0
0
LINE
5
AA
100
AcDbEntity
8
placement
6
ByLayer
62
256
370
-1
100
AcDbLine
10
5
20
102.7
11
5
21
-1.22464679915e-15
0
LINE
5
AB
100
AcDbEntity
8
placement
6
ByLayer
62
256
370
-1
100
AcDbLine
10
89
20
6.12323399574e-16
11
89
21
102.7
0
LINE
5
AC
100
AcDbEntity
8
placement
6
ByLayer
62
256
370
-1
100
AcDbLine
10
44.5
20
102.7
11
44.5
21
9.18485099361e-16
0
LINE
5
AD
100
AcDbEntity
8
placement
6
ByLayer
62
256
370
-1
100
AcDbLine
10
49.5
20
102.7
11
49.5
21
-6.12323399574e-16
0
LINE
5
AE
100
AcDbEntity
8
placement
6
ByLayer
62
256
370
-1
100
AcDbLine
10
7.5
20
102.7
11
7.5
21
-1.83697019872e-15
0
LINE
5
AF
100
AcDbEntity
8
placement
6
ByLayer
62
256
370
-1
100
AcDbLine
10
10
20
102.7
11
10
21
-2.44929359829e-15
0
LINE
5
B0
100
AcDbEntity
8
placement
6
ByLayer
62
256
370
-1
100
AcDbLine
10
86.5
20
9.18485099361e-16
11
86.5
21
102.7
0
LINE
5
B1
100
AcDbEntity
8
placement
6
ByLayer
62
256
370
-1
100
AcDbLine
10
84
20
1.22464679915e-15
11
84
21
102.7
0
LINE
5
B2
100
AcDbEntity
8
placement
6
ByLayer
62
256
370
-1
100
AcDbLine
10
1.53080849893e-16
20
2.5
11
94
21
2.5
0
LINE
5
B3
100
AcDbEntity
8
placement
6
ByLayer
62
256
370
-1
100
AcDbLine
10
94
20
100.2
11
-4.5924254968e-16
21
100.2
0
LINE
5
B4
100
AcDbEntity
8
placement
6
ByLayer
62
256
370
-1
100
AcDbLine
10
94
20
98.55
11
-7.62342632469e-16
21
98.55
0
LINE
5
B5
100
AcDbEntity
8
placement
6
ByLayer
62
256
370
-1
100
AcDbLine
10
94
20
96.9
11
-1.06544271526e-15
21
96.9
0
LINE
5
B6
100
AcDbEntity
8
placement
6
ByLayer
62
256
370
-1
100
AcDbLine
10
94
20
95.25
11
-1.36854279805e-15
21
95.25
0
CIRCLE
5
B7
100
AcDbEntity
8
dots
6
ByLayer
62
256
370
-1
100
AcDbCircle
10
5
20
100.2
40
0.5
0
CIRCLE
5
B8
100
AcDbEntity
8
dots
6
ByLayer
62
256
370
-1
100
AcDbCircle
10
10
20
98.55
40
0.5
0
CIRCLE
5
B9
100
AcDbEntity
8
dots
6
ByLayer
62
256
370
-1
100
AcDbCircle
10
5
20
96.9
40
0.5
0
CIRCLE
5
BA
100
AcDbEntity
8
dots
6
ByLayer
62
256
370
-1
100
AcDbCircle
10
10
20
95.25
40
0.5
0
CIRCLE
5
BB
100
AcDbEntity
8
dots
6
ByLayer
62
256
370
-1
100
AcDbCircle
10
5
20
93.6
40
0.5
0
CIRCLE
5
BC
100
AcDbEntity
8
dots
6
ByLayer
62
256
370
-1
100
AcDbCircle
10
10
20
91.95
40
0.5
0
CIRCLE
5
BD
100
AcDbEntity
8
dots
6
ByLayer
62
256
370
-1
100
AcDbCircle
10
5
20
90.3
40
0.5
0
CIRCLE
5
BE
100
AcDbEntity
8
dots
6
ByLayer
62
256
370
-1
100
AcDbCircle
10
10
20
88.65
40
0.5
0
CIRCLE
5
BF
100
AcDbEntity
8
dots
6
ByLayer
62
256
370
-1
100
AcDbCircle
10
5
20
87
40
0.5
0
CIRCLE
5
C0
100
AcDbEntity
8
dots
6
ByLayer
62
256
370
-1
100
AcDbCircle
10
10
20
85.35
40
0.5
0
CIRCLE
5
C1
100
AcDbEntity
8
dots
6
ByLayer
62
256
370
-1
100
AcDbCircle
10
5
20
83.7
40
0.5
0
CIRCLE
5
C2
100
AcDbEntity
8
dots
6
ByLayer
62
256
370
-1
100
AcDbCircle
10
10
20
82.05
40
0.5
0
CIRCLE
5
C3
100
AcDbEntity
8
dots
6
ByLayer
62
256
370
-1
100
AcDbCircle
10
5
20
80.4
40
0.5
0
CIRCLE
5
C4
100
AcDbEntity
8
dots
6
ByLayer
62
256
370
-1
100
AcDbCircle
10
10
20
78.75
40
0.5
0
CIRCLE
5
C5
100
AcDbEntity
8
dots
6
ByLayer
62
256
370
-1
100
AcDbCircle
10
5
20
77.1
40
0.5
0
CIRCLE
5
C6
100
AcDbEntity
8
dots
6
ByLayer
62
256
370
-1
100
AcDbCircle
10
10
20
75.45
40
0.5
0
CIRCLE
5
C7
100
AcDbEntity
8
dots
6
ByLayer
62
256
370
-1
100
AcDbCircle
10
5
20
73.8
40
0.5
0
CIRCLE
5
C8
100
AcDbEntity
8
dots
6
ByLayer
62
256
370
-1
100
AcDbCircle
10
10
20
72.15
40
0.5
0
CIRCLE
5
C9
100
AcDbEntity
8
dots
6
ByLayer
62
256
370
-1
100
AcDbCircle
10
5
20
70.5
40
0.5
0
CIRCLE
5
CA
100
AcDbEntity
8
dots
6
ByLayer
62
256
370
-1
100
AcDbCircle
10
10
20
68.85
40
0.5
0
CIRCLE
5
CB
100
AcDbEntity
8
dots
6
ByLayer
62
256
370
-1
100
AcDbCircle
10
5
20
67.2
40
0.5
0
CIRCLE
5
CC
100
AcDbEntity
8
dots
6
ByLayer
62
256
370
-1
100
AcDbCircle
10
10
20
65.55
40
0.5
0
CIRCLE
5
CD
100
AcDbEntity
8
dots
6
ByLayer
62
256
370
-1
100
AcDbCircle
10
5
20
63.9
40
0.5
0
CIRCLE
5
CE
100
AcDbEntity
8
dots
6
ByLayer
62
256
370
-1
100
AcDbCircle
10
10
20
62.25
40
0.5
0
CIRCLE
5
CF
100
AcDbEntity
8
dots
6
ByLayer
62
256
370
-1
100
AcDbCircle
10
5
20
60.6
40
0.5
0
CIRCLE
5
D0
100
AcDbEntity
8
dots
6
ByLayer
62
256
370
-1
100
AcDbCircle
10
10
20
58.95
40
0.5
0
CIRCLE
5
D1
100
AcDbEntity
8
dots
6
ByLayer
62
256
370
-1
100
AcDbCircle
10
5
20
57.3
40
0.5
0
CIRCLE
5
D2
100
AcDbEntity
8
dots
6
ByLayer
62
256
370
-1
100
AcDbCircle
10
10
20
55.65
40
0.5
0
CIRCLE
5
D3
100
AcDbEntity
8
dots
6
ByLayer
62
256
370
-1
100
AcDbCircle
10
5
20
54
40
0.5
0
CIRCLE
5
D4
100
AcDbEntity
8
dots
6
ByLayer
62
256
370
-1
100
AcDbCircle
10
10
20
52.35
40
0.5
0
CIRCLE
5
D5
100
AcDbEntity
8
dots
6
ByLayer
62
256
370
-1
100
AcDbCircle
10
5
20
50.7
40
0.5
0
CIRCLE
5
D6
100
AcDbEntity
8
dots
6
ByLayer
62
256
370
-1
100
AcDbCircle
10
10
20
49.05
40
0.5
0
CIRCLE
5
D7
100
AcDbEntity
8
dots
6
ByLayer
62
256
370
-1
100
AcDbCircle
10
5
20
47.4
40
0.5
0
CIRCLE
5
D8
100
AcDbEntity
8
dots
6
ByLayer
62
256
370
-1
100
AcDbCircle
10
10
20
45.75
40
0.5
0
CIRCLE
5
D9
100
AcDbEntity
8
dots
6
ByLayer
62
256
370
-1
100
AcDbCircle
10
5
20
44.1
40
0.5
0
CIRCLE
5
DA
100
AcDbEntity
8
dots
6
ByLayer
62
256
370
-1
100
AcDbCircle
10
10
20
42.45
40
0.5
0
CIRCLE
5
DB
100
AcDbEntity
8
dots
6
ByLayer
62
256
370
-1
100
AcDbCircle
10
5
20
40.8
40
0.5
0
CIRCLE
5
DC
100
AcDbEntity
8
dots
6
ByLayer
62
256
370
-1
100
AcDbCircle
10
10
20
39.15
40
0.5
0
CIRCLE
5
DD
100
AcDbEntity
8
dots
6
ByLayer
62
256
370
-1
100
AcDbCircle
10
5
20
37.5
40
0.5
0
CIRCLE
5
DE
100
AcDbEntity
8
dots
6
ByLayer
62
256
370
-1
100
AcDbCircle
10
10
20
35.85
40
0.5
0
CIRCLE
5
DF
100
AcDbEntity
8
dots
6
ByLayer
62
256
370
-1
100
AcDbCircle
10
5
20
34.2
40
0.5
0
CIRCLE
5
E0
100
AcDbEntity
8
dots
6
ByLayer
62
256
370
-1
100
AcDbCircle
10
10
20
32.55
40
0.5
0
CIRCLE
5
E1
100
AcDbEntity
8
dots
6
ByLayer
62
256
370
-1
100
AcDbCircle
10
5
20
30.9
40
0.5
0
CIRCLE
5
E2
100
AcDbEntity
8
dots
6
ByLayer
62
256
370
-1
100
AcDbCircle
10
10
20
29.25
40
0.5
0
CIRCLE
5
E3
100
AcDbEntity
8
dots
6
ByLayer
62
256
370
-1
100
AcDbCircle
10
5
20
27.6
40
0.5
0
CIRCLE
5
E4
100
AcDbEntity
8
dots
6
ByLayer
62
256
370
-1
100
AcDbCircle
10
10
20
25.95
40
0.5
0
CIRCLE
5
E5
100
AcDbEntity
8
dots
6
ByLayer
62
256
370
-1
100
AcDbCircle
10
5
20
24.3
40
0.5
0
CIRCLE
5
E6
100
AcDbEntity
8
dots
6
ByLayer
62
256
370
-1
100
AcDbCircle
10
10
20
22.65
40
0.5
0
CIRCLE
5
E7
100
AcDbEntity
8
dots
6
ByLayer
62
256
370
-1
100
AcDbCircle
10
5
20
21
40
0.5
0
CIRCLE
5
E8
100
AcDbEntity
8
dots
6
ByLayer
62
256
370
-1
100
AcDbCircle
10
10
20
19.35
40
0.5
0
CIRCLE
5
E9
100
AcDbEntity
8
dots
6
ByLayer
62
256
370
-1
100
AcDbCircle
10
5
20
17.7
40
0.5
0
CIRCLE
5
EA
100
AcDbEntity
8
dots
6
ByLayer
62
256
370
-1
100
AcDbCircle
10
10
20
16.05
40
0.5
0
CIRCLE
5
EB
100
AcDbEntity
8
dots
6
ByLayer
62
256
370
-1
100
AcDbCircle
10
5
20
14.4
40
0.5
0
CIRCLE
5
EC
100
AcDbEntity
8
dots
6
ByLayer
62
256
370
-1
100
AcDbCircle
10
10
20
12.75
40
0.5
0
CIRCLE
5
ED
100
AcDbEntity
8
dots
6
ByLayer
62
256
370
-1
100
AcDbCircle
10
5
20
11.1
40
0.5
0
CIRCLE
5
EE
100
AcDbEntity
8
dots
6
ByLayer
62
256
370
-1
100
AcDbCircle
10
10
20
9.45
40
0.5
0
CIRCLE
5
EF
100
AcDbEntity
8
dots
6
ByLayer
62
256
370
-1
100
AcDbCircle
10
5
20
7.8
40
0.5
0
CIRCLE
5
F0
100
AcDbEntity
8
dots
6
ByLayer
62
256
370
-1
100
AcDbCircle
10
10
20
6.15
40
0.5
0
CIRCLE
5
F1
100
AcDbEntity
8
dots
6
ByLayer
62
256
370
-1
100
AcDbCircle
10
5
20
4.5
40
0.5
0
CIRCLE
5
F2
100
AcDbEntity
8
dots
6
ByLayer
62
256
370
-1
100
AcDbCircle
10
10
20
2.85
40
0.5
0
CIRCLE
5
F3
100
AcDbEntity
8
dots
6
ByLayer
62
256
370
-1
100
AcDbCircle
10
44.5
20
100.2
40
0.5
0
CIRCLE
5
F4
100
AcDbEntity
8
dots
6
ByLayer
62
256
370
-1
100
AcDbCircle
10
49.5
20
98.55
40
0.5
0
CIRCLE
5
F5
100
AcDbEntity
8
dots
6
ByLayer
62
256
370
-1
100
AcDbCircle
10
44.5
20
96.9
40
0.5
0
CIRCLE
5
F6
100
AcDbEntity
8
dots
6
ByLayer
62
256
370
-1
100
AcDbCircle
10
49.5
20
95.25
40
0.5
0
CIRCLE
5
F7
100
AcDbEntity
8
dots
6
ByLayer
62
256
370
-1
100
AcDbCircle
10
44.5
20
93.6
40
0.5
0
CIRCLE
5
F8
100
AcDbEntity
8
dots
6
ByLayer
62
256
370
-1
100
AcDbCircle
10
49.5
20
91.95
40
0.5
0
CIRCLE
5
F9
100
AcDbEntity
8
dots
6
ByLayer
62
256
370
-1
100
AcDbCircle
10
44.5
20
90.3
40
0.5
0
CIRCLE
5
FA
100
AcDbEntity
8
dots
6
ByLayer
62
256
370
-1
100
AcDbCircle
10
49.5
20
88.65
40
0.5
0
CIRCLE
5
FB
100
AcDbEntity
8
dots
6
ByLayer
62
256
370
-1
100
AcDbCircle
10
44.5
20
87
40
0.5
0
CIRCLE
5
FC
100
AcDbEntity
8
dots
6
ByLayer
62
256
370
-1
100
AcDbCircle
10
49.5
20
85.35
40
0.5
0
CIRCLE
5
FD
100
AcDbEntity
8
dots
6
ByLayer
62
256
370
-1
100
AcDbCircle
10
84
20
100.2
40
0.5
0
CIRCLE
5
FE
100
AcDbEntity
8
dots
6
ByLayer
62
256
370
-1
100
AcDbCircle
10
89
20
98.55
40
0.5
0
CIRCLE
5
FF
100
AcDbEntity
8
dots
6
ByLayer
62
256
370
-1
100
AcDbCircle
10
84
20
96.9
40
0.5
0
CIRCLE
5
100
100
AcDbEntity
8
dots
6
ByLayer
62
256
370
-1
100
AcDbCircle
10
89
20
95.25
40
0.5
0
CIRCLE
5
101
100
AcDbEntity
8
dots
6
ByLayer
62
256
370
-1
100
AcDbCircle
10
84
20
93.6
40
0.5
0
CIRCLE
5
102
100
AcDbEntity
8
dots
6
ByLayer
62
256
370
-1
100
AcDbCircle
10
89
20
91.95
40
0.5
0
CIRCLE
5
103
100
AcDbEntity
8
dots
6
ByLayer
62
256
370
-1
100
AcDbCircle
10
84
20
90.3
40
0.5
0
CIRCLE
5
104
100
AcDbEntity
8
dots
6
ByLayer
62
256
370
-1
100
AcDbCircle
10
89
20
88.65
40
0.5
0
CIRCLE
5
105
100
AcDbEntity
8
dots
6
ByLayer
62
256
370
-1
100
AcDbCircle
10
84
20
87
40
0.5
0
CIRCLE
5
106
100
AcDbEntity
8
dots
6
ByLayer
62
256
370
-1
100
AcDbCircle
10
89
20
85.35
40
0.5
0
CIRCLE
5
107
100
AcDbEntity
8
dots
6
ByLayer
62
256
370
-1
100
AcDbCircle
10
84
20
83.7
40
0.5
0
CIRCLE
5
108
100
AcDbEntity
8
dots
6
ByLayer
62
256
370
-1
100
AcDbCircle
10
89
20
82.05
40
0.5
0
CIRCLE
5
109
100
AcDbEntity
8
dots
6
ByLayer
62
256
370
-1
100
AcDbCircle
10
84
20
80.4
40
0.5
0
CIRCLE
5
10A
100
AcDbEntity
8
dots
6
ByLayer
62
256
370
-1
100
AcDbCircle
10
89
20
78.75
40
0.5
0
CIRCLE
5
10B
100
AcDbEntity
8
dots
6
ByLayer
62
256
370
-1
100
AcDbCircle
10
84
20
77.1
40
0.5
0
CIRCLE
5
10C
100
AcDbEntity
8
dots
6
ByLayer
62
256
370
-1
100
AcDbCircle
10
89
20
75.45
40
0.5
0
CIRCLE
5
10D
100
AcDbEntity
8
dots
6
ByLayer
62
256
370
-1
100
AcDbCircle
10
84
20
73.8
40
0.5
0
CIRCLE
5
10E
100
AcDbEntity
8
dots
6
ByLayer
62
256
370
-1
100
AcDbCircle
10
89
20
72.15
40
0.5
0
CIRCLE
5
10F
100
AcDbEntity
8
dots
6
ByLayer
62
256
370
-1
100
AcDbCircle
10
84
20
70.5
40
0.5
0
CIRCLE
5
110
100
AcDbEntity
8
dots
6
ByLayer
62
256
370
-1
100
AcDbCircle
10
89
20
68.85
40
0.5
0
CIRCLE
5
111
100
AcDbEntity
8
dots
6
ByLayer
62
256
370
-1
100
AcDbCircle
10
84
20
67.2
40
0.5
0
CIRCLE
5
112
100
AcDbEntity
8
dots
6
ByLayer
62
256
370
-1
100
AcDbCircle
10
89
20
65.55
40
0.5
0
CIRCLE
5
113
100
AcDbEntity
8
dots
6
ByLayer
62
256
370
-1
100
AcDbCircle
10
84
20
63.9
40
0.5
0
CIRCLE
5
114
100
AcDbEntity
8
dots
6
ByLayer
62
256
370
-1
100
AcDbCircle
10
89
20
62.25
40
0.5
0
CIRCLE
5
115
100
AcDbEntity
8
dots
6
ByLayer
62
256
370
-1
100
AcDbCircle
10
84
20
60.6
40
0.5
0
CIRCLE
5
116
100
AcDbEntity
8
dots
6
ByLayer
62
256
370
-1
100
AcDbCircle
10
89
20
58.95
40
0.5
0
CIRCLE
5
117
100
AcDbEntity
8
dots
6
ByLayer
62
256
370
-1
100
AcDbCircle
10
84
20
57.3
40
0.5
0
CIRCLE
5
118
100
AcDbEntity
8
dots
6
ByLayer
62
256
370
-1
100
AcDbCircle
10
89
20
55.65
40
0.5
0
CIRCLE
5
119
100
AcDbEntity
8
dots
6
ByLayer
62
256
370
-1
100
AcDbCircle
10
84
20
54
40
0.5
0
CIRCLE
5
11A
100
AcDbEntity
8
dots
6
ByLayer
62
256
370
-1
100
AcDbCircle
10
89
20
52.35
40
0.5
0
CIRCLE
5
11B
100
AcDbEntity
8
dots
6
ByLayer
62
256
370
-1
100
AcDbCircle
10
84
20
50.7
40
0.5
0
CIRCLE
5
11C
100
AcDbEntity
8
dots
6
ByLayer
62
256
370
-1
100
AcDbCircle
10
89
20
49.05
40
0.5
0
CIRCLE
5
11D
100
AcDbEntity
8
dots
6
ByLayer
62
256
370
-1
100
AcDbCircle
10
84
20
47.4
40
0.5
0
CIRCLE
5
11E
100
AcDbEntity
8
dots
6
ByLayer
62
256
370
-1
100
AcDbCircle
10
89
20
45.75
40
0.5
0
CIRCLE
5
11F
100
AcDbEntity
8
dots
6
ByLayer
62
256
370
-1
100
AcDbCircle
10
84
20
44.1
40
0.5
0
CIRCLE
5
120
100
AcDbEntity
8
dots
6
ByLayer
62
256
370
-1
100
AcDbCircle
10
89
20
42.45
40
0.5
0
CIRCLE
5
121
100
AcDbEntity
8
dots
6
ByLayer
62
256
370
-1
100
AcDbCircle
10
84
20
40.8
40
0.5
0
CIRCLE
5
122
100
AcDbEntity
8
dots
6
ByLayer
62
256
370
-1
100
AcDbCircle
10
89
20
39.15
40
0.5
0
CIRCLE
5
123
100
AcDbEntity
8
dots
6
ByLayer
62
256
370
-1
100
AcDbCircle
10
84
20
37.5
40
0.5
0
CIRCLE
5
124
100
AcDbEntity
8
dots
6
ByLayer
62
256
370
-1
100
AcDbCircle
10
89
20
35.85
40
0.5
0
CIRCLE
5
125
100
AcDbEntity
8
dots
6
ByLayer
62
256
370
-1
100
AcDbCircle
10
84
20
34.2
40
0.5
0
CIRCLE
5
126
100
AcDbEntity
8
dots
6
ByLayer
62
256
370
-1
100
AcDbCircle
10
89
20
32.55
40
0.5
0
CIRCLE
5
127
100
AcDbEntity
8
dots
6
ByLayer
62
256
370
-1
100
AcDbCircle
10
84
20
30.9
40
0.5
0
CIRCLE
5
128
100
AcDbEntity
8
dots
6
ByLayer
62
256
370
-1
100
AcDbCircle
10
89
20
29.25
40
0.5
0
CIRCLE
5
129
100
AcDbEntity
8
dots
6
ByLayer
62
256
370
-1
100
AcDbCircle
10
84
20
27.6
40
0.5
0
CIRCLE
5
12A
100
AcDbEntity
8
dots
6
ByLayer
62
256
370
-1
100
AcDbCircle
10
89
20
25.95
40
0.5
0
CIRCLE
5
12B
100
AcDbEntity
8
dots
6
ByLayer
62
256
370
-1
100
AcDbCircle
10
84
20
24.3
40
0.5
0
CIRCLE
5
12C
100
AcDbEntity
8
dots
6
ByLayer
62
256
370
-1
100
AcDbCircle
10
89
20
22.65
40
0.5
0
CIRCLE
5
12D
100
AcDbEntity
8
dots
6
ByLayer
62
256
370
-1
100
AcDbCircle
10
84
20
21
40
0.5
0
CIRCLE
5
12E
100
AcDbEntity
8
dots
6
ByLayer
62
256
370
-1
100
AcDbCircle
10
89
20
19.35
40
0.5
0
CIRCLE
5
12F
100
AcDbEntity
8
dots
6
ByLayer
62
256
370
-1
100
AcDbCircle
10
84
20
17.7
40
0.5
0
CIRCLE
5
130
100
AcDbEntity
8
dots
6
ByLayer
62
256
370
-1
100
AcDbCircle
10
89
20
16.05
40
0.5
0
CIRCLE
5
131
100
AcDbEntity
8
dots
6
ByLayer
62
256
370
-1
100
AcDbCircle
10
84
20
14.4
40
0.5
0
CIRCLE
5
132
100
AcDbEntity
8
dots
6
ByLayer
62
256
370
-1
100
AcDbCircle
10
89
20
12.75
40
0.5
0
CIRCLE
5
133
100
AcDbEntity
8
dots
6
ByLayer
62
256
370
-1
100
AcDbCircle
10
84
20
11.1
40
0.5
0
CIRCLE
5
134
100
AcDbEntity
8
dots
6
ByLayer
62
256
370
-1
100
AcDbCircle
10
89
20
9.45
40
0.5
0
CIRCLE
5
135
100
AcDbEntity
8
dots
6
ByLayer
62
256
370
-1
100
AcDbCircle
10
84
20
7.8
40
0.5
0
CIRCLE
5
136
100
AcDbEntity
8
dots
6
ByLayer
62
256
370
-1
100
AcDbCircle
10
89
20
6.15
40
0.5
0
CIRCLE
5
137
100
AcDbEntity
8
dots
6
ByLayer
62
256
370
-1
100
AcDbCircle
10
84
20
4.5
40
0.5
0
CIRCLE
5
138
100
AcDbEntity
8
dots
6
ByLayer
62
256
370
-1
100
AcDbCircle
10
89
20
2.85
40
0.5
0
DIMENSION
5
139
100
AcDbEntity
8
cotes
6
ByLayer
62
256
370
-1
100
AcDbDimension
2
*D1
10
-20
20
4.89858719659e-15
30
0
11
-21.125
21
51.35
31
0
70
33
71
5
72
0
3
Standard
53
0
210
0
220
0
230
1
100
AcDbAlignedDimension
13
0
23
102.7
33
0
14
0
24
0
34
0
0
DIMENSION
5
13A
100
AcDbEntity
8
dots
6
ByLayer
62
256
370
-1
100
AcDbDimension
2
*D2
10
94
20
120
30
0
11
47
21
121.125
31
0
70
33
71
5
72
0
3
Standard
53
0
210
0
220
0
230
1
100
AcDbAlignedDimension
13
0
23
102.7
33
0
14
94
24
102.7
34
0
0
DIMENSION
5
13B
100
AcDbEntity
8
cotes
6
ByLayer
62
256
370
-1
100
AcDbDimension
2
*D3
10
5
20
110
30
0
11
2.5
21
111.125
31
0
70
33
71
5
72
0
3
Standard
53
0
210
0
220
0
230
1
100
AcDbAlignedDimension
13
0
23
102.7
33
0
14
5
24
102.7
34
0
0
DIMENSION
5
13C
100
AcDbEntity
8
cotes
6
ByLayer
62
256
370
-1
100
AcDbDimension
2
*D4
10
10
20
120
30
0
11
7.5
21
121.125
31
0
70
33
71
5
72
0
3
Standard
53
0
210
0
220
0
230
1
100
AcDbAlignedDimension
13
5
23
102.7
33
0
14
10
24
102.7
34
0
0
DIMENSION
5
13D
100
AcDbEntity
8
cotes
6
ByLayer
62
256
370
-1
100
AcDbDimension
2
*D5
10
44.5
20
-10
30
0
11
22.25
21
-8.875
31
0
70
33
71
5
72
0
3
Standard
53
0
210
0
220
0
230
1
100
AcDbAlignedDimension
13
0
23
0
33
0
14
44.5
24
9.18485099361e-16
34
0
0
DIMENSION
5
13E
100
AcDbEntity
8
cotes
6
ByLayer
62
256
370
-1
100
AcDbDimension
2
*D6
10
49.5
20
-10
30
0
11
47
21
-8.875
31
0
70
33
71
5
72
0
3
Standard
53
0
210
0
220
0
230
1
100
AcDbAlignedDimension
13
44.5
23
9.18485099361e-16
33
0
14
49.5
24
-6.12323399574e-16
34
0
0
DIMENSION
5
13F
100
AcDbEntity
8
cotes
6
ByLayer
62
256
370
-1
100
AcDbDimension
2
*D7
10
-3
20
7.54572088296e-17
30
0
11
-4.125
21
1.425
31
0
70
33
71
5
72
0
3
Standard
53
0
210
0
220
0
230
1
100
AcDbAlignedDimension
13
10
23
2.85
33
0
14
10
24
0
34
0
0
DIMENSION
5
140
100
AcDbEntity
8
cotes
6
ByLayer
62
256
370
-1
100
AcDbDimension
2
*D8
10
-3
20
93.6
30
0
11
-4.125
21
95.25
31
0
70
33
71
5
72
0
3
Standard
53
0
210
0
220
0
230
1
100
AcDbAlignedDimension
13
5
23
96.9
33
0
14
5
24
93.6
34
0
0
POINT
5
141
100
AcDbEntity
8
points
6
ByLayer
62
256
370
-1
100
AcDbPoint
10
5
20
100.2
0
POINT
5
142
100
AcDbEntity
8
points
6
ByLayer
62
256
370
-1
100
AcDbPoint
10
10
20
98.55
0
POINT
5
143
100
AcDbEntity
8
points
6
ByLayer
62
256
370
-1
100
AcDbPoint
10
5
20
96.9
0
POINT
5
144
100
AcDbEntity
8
points
6
ByLayer
62
256
370
-1
100
AcDbPoint
10
10
20
95.25
0
POINT
5
145
100
AcDbEntity
8
points
6
ByLayer
62
256
370
-1
100
AcDbPoint
10
5
20
93.6
0
POINT
5
146
100
AcDbEntity
8
points
6
ByLayer
62
256
370
-1
100
AcDbPoint
10
10
20
92
0
POINT
5
147
100
AcDbEntity
8
points
6
ByLayer
62
256
370
-1
100
AcDbPoint
10
5
20
90.3
0
POINT
5
148
100
AcDbEntity
8
points
6
ByLayer
62
256
370
-1
100
AcDbPoint
10
10
20
88.65
0
POINT
5
149
100
AcDbEntity
8
points
6
ByLayer
62
256
370
-1
100
AcDbPoint
10
5
20
87
0
POINT
5
14A
100
AcDbEntity
8
points
6
ByLayer
62
256
370
-1
100
AcDbPoint
10
10
20
85.35
0
POINT
5
14B
100
AcDbEntity
8
points
6
ByLayer
62
256
370
-1
100
AcDbPoint
10
5
20
83.7
0
POINT
5
14C
100
AcDbEntity
8
points
6
ByLayer
62
256
370
-1
100
AcDbPoint
10
10
20
82.05
0
POINT
5
14D
100
AcDbEntity
8
points
6
ByLayer
62
256
370
-1
100
AcDbPoint
10
5
20
80.4
0
POINT
5
14E
100
AcDbEntity
8
points
6
ByLayer
62
256
370
-1
100
AcDbPoint
10
10
20
78.75
0
POINT
5
14F
100
AcDbEntity
8
points
6
ByLayer
62
256
370
-1
100
AcDbPoint
10
10
20
75.45
0
POINT
5
150
100
AcDbEntity
8
points
6
ByLayer
62
256
370
-1
100
AcDbPoint
10
5
20
73.8
0
POINT
5
151
100
AcDbEntity
8
points
6
ByLayer
62
256
370
-1
100
AcDbPoint
10
5
20
77.1
0
POINT
5
152
100
AcDbEntity
8
points
6
ByLayer
62
256
370
-1
100
AcDbPoint
10
10
20
72
0
POINT
5
153
100
AcDbEntity
8
points
6
ByLayer
62
256
370
-1
100
AcDbPoint
10
5
20
70.5
0
POINT
5
154
100
AcDbEntity
8
points
6
ByLayer
62
256
370
-1
100
AcDbPoint
10
10
20
68.85
0
POINT
5
155
100
AcDbEntity
8
points
6
ByLayer
62
256
370
-1
100
AcDbPoint
10
5
20
67.2
0
POINT
5
156
100
AcDbEntity
8
points
6
ByLayer
62
256
370
-1
100
AcDbPoint
10
10
20
65.55
0
POINT
5
157
100
AcDbEntity
8
points
6
ByLayer
62
256
370
-1
100
AcDbPoint
10
5
20
63.9
0
POINT
5
158
100
AcDbEntity
8
points
6
ByLayer
62
256
370
-1
100
AcDbPoint
10
10
20
62.25
0
POINT
5
159
100
AcDbEntity
8
points
6
ByLayer
62
256
370
-1
100
AcDbPoint
10
5
20
60.6
0
POINT
5
15A
100
AcDbEntity
8
points
6
ByLayer
62
256
370
-1
100
AcDbPoint
10
10
20
58.95
0
POINT
5
15B
100
AcDbEntity
8
points
6
ByLayer
62
256
370
-1
100
AcDbPoint
10
5
20
57.3
0
POINT
5
15C
100
AcDbEntity
8
points
6
ByLayer
62
256
370
-1
100
AcDbPoint
10
10
20
55.65
0
POINT
5
15D
100
AcDbEntity
8
points
6
ByLayer
62
256
370
-1
100
AcDbPoint
10
5
20
54
0
POINT
5
15E
100
AcDbEntity
8
points
6
ByLayer
62
256
370
-1
100
AcDbPoint
10
10
20
52.35
0
POINT
5
15F
100
AcDbEntity
8
points
6
ByLayer
62
256
370
-1
100
AcDbPoint
10
5
20
50.7
0
POINT
5
160
100
AcDbEntity
8
points
6
ByLayer
62
256
370
-1
100
AcDbPoint
10
10
20
49.05
0
POINT
5
161
100
AcDbEntity
8
points
6
ByLayer
62
256
370
-1
100
AcDbPoint
10
5
20
47.4
0
POINT
5
162
100
AcDbEntity
8
points
6
ByLayer
62
256
370
-1
100
AcDbPoint
10
10
20
45.75
0
POINT
5
163
100
AcDbEntity
8
points
6
ByLayer
62
256
370
-1
100
AcDbPoint
10
5
20
44.1
0
POINT
5
164
100
AcDbEntity
8
points
6
ByLayer
62
256
370
-1
100
AcDbPoint
10
10
20
42.45
0
POINT
5
165
100
AcDbEntity
8
points
6
ByLayer
62
256
370
-1
100
AcDbPoint
10
5
20
40.8
0
POINT
5
166
100
AcDbEntity
8
points
6
ByLayer
62
256
370
-1
100
AcDbPoint
10
10
20
39.15
0
POINT
5
167
100
AcDbEntity
8
points
6
ByLayer
62
256
370
-1
100
AcDbPoint
10
5
20
37.5
0
POINT
5
168
100
AcDbEntity
8
points
6
ByLayer
62
256
370
-1
100
AcDbPoint
10
10
20
35.85
0
POINT
5
169
100
AcDbEntity
8
points
6
ByLayer
62
256
370
-1
100
AcDbPoint
10
5
20
34.2
0
POINT
5
16A
100
AcDbEntity
8
points
6
ByLayer
62
256
370
-1
100
AcDbPoint
10
10
20
32.55
0
POINT
5
16B
100
AcDbEntity
8
points
6
ByLayer
62
256
370
-1
100
AcDbPoint
10
5
20
30.9
0
POINT
5
16C
100
AcDbEntity
8
points
6
ByLayer
62
256
370
-1
100
AcDbPoint
10
10
20
29.25
0
POINT
5
16D
100
AcDbEntity
8
points
6
ByLayer
62
256
370
-1
100
AcDbPoint
10
5
20
27.6
0
POINT
5
16E
100
AcDbEntity
8
points
6
ByLayer
62
256
370
-1
100
AcDbPoint
10
10
20
25.95
0
POINT
5
16F
100
AcDbEntity
8
points
6
ByLayer
62
256
370
-1
100
AcDbPoint
10
5
20
24.3
0
POINT
5
170
100
AcDbEntity
8
points
6
ByLayer
62
256
370
-1
100
AcDbPoint
10
10
20
22.65
0
POINT
5
171
100
AcDbEntity
8
points
6
ByLayer
62
256
370
-1
100
AcDbPoint
10
5
20
21
0
POINT
5
172
100
AcDbEntity
8
points
6
ByLayer
62
256
370
-1
100
AcDbPoint
10
10
20
19.35
0
POINT
5
173
100
AcDbEntity
8
points
6
ByLayer
62
256
370
-1
100
AcDbPoint
10
5
20
17.7
0
POINT
5
174
100
AcDbEntity
8
points
6
ByLayer
62
256
370
-1
100
AcDbPoint
10
10
20
16.05
0
POINT
5
175
100
AcDbEntity
8
points
6
ByLayer
62
256
370
-1
100
AcDbPoint
10
5
20
14.4
0
POINT
5
176
100
AcDbEntity
8
points
6
ByLayer
62
256
370
-1
100
AcDbPoint
10
10
20
12.75
0
POINT
5
177
100
AcDbEntity
8
points
6
ByLayer
62
256
370
-1
100
AcDbPoint
10
5
20
11.1
0
POINT
5
178
100
AcDbEntity
8
points
6
ByLayer
62
256
370
-1
100
AcDbPoint
10
10
20
9.45
0
POINT
5
179
100
AcDbEntity
8
points
6
ByLayer
62
256
370
-1
100
AcDbPoint
10
5
20
7.8
0
POINT
5
17A
100
AcDbEntity
8
points
6
ByLayer
62
256
370
-1
100
AcDbPoint
10
10
20
6.15
0
POINT
5
17B
100
AcDbEntity
8
points
6
ByLayer
62
256
370
-1
100
AcDbPoint
10
5
20
4.5
0
POINT
5
17C
100
AcDbEntity
8
points
6
ByLayer
62
256
370
-1
100
AcDbPoint
10
10
20
2.85
0
POINT
5
17D
100
AcDbEntity
8
points
6
ByLayer
62
256
370
-1
100
AcDbPoint
10
49.5
20
85.35
0
POINT
5
17E
100
AcDbEntity
8
points
6
ByLayer
62
256
370
-1
100
AcDbPoint
10
44.5
20
87
0
POINT
5
17F
100
AcDbEntity
8
points
6
ByLayer
62
256
370
-1
100
AcDbPoint
10
49.5
20
88.65
0
POINT
5
180
100
AcDbEntity
8
points
6
ByLayer
62
256
370
-1
100
AcDbPoint
10
44.5
20
90.3
0
POINT
5
181
100
AcDbEntity
8
points
6
ByLayer
62
256
370
-1
100
AcDbPoint
10
49.5
20
91.95
0
POINT
5
182
100
AcDbEntity
8
points
6
ByLayer
62
256
370
-1
100
AcDbPoint
10
44.5
20
93.6
0
POINT
5
183
100
AcDbEntity
8
points
6
ByLayer
62
256
370
-1
100
AcDbPoint
10
49.5
20
95.25
0
POINT
5
184
100
AcDbEntity
8
points
6
ByLayer
62
256
370
-1
100
AcDbPoint
10
44.5
20
96.9
0
POINT
5
185
100
AcDbEntity
8
points
6
ByLayer
62
256
370
-1
100
AcDbPoint
10
49.5
20
98.55
0
POINT
5
186
100
AcDbEntity
8
points
6
ByLayer
62
256
370
-1
100
AcDbPoint
10
44.5
20
100.2
0
POINT
5
187
100
AcDbEntity
8
points
6
ByLayer
62
256
370
-1
100
AcDbPoint
10
84
20
100.2
0
POINT
5
188
100
AcDbEntity
8
points
6
ByLayer
62
256
370
-1
100
AcDbPoint
10
89
20
98.55
0
POINT
5
189
100
AcDbEntity
8
points
6
ByLayer
62
256
370
-1
100
AcDbPoint
10
84
20
96.9
0
POINT
5
18A
100
AcDbEntity
8
points
6
ByLayer
62
256
370
-1
100
AcDbPoint
10
89
20
95.25
0
POINT
5
18B
100
AcDbEntity
8
points
6
ByLayer
62
256
370
-1
100
AcDbPoint
10
84
20
93.6
0
POINT
5
18C
100
AcDbEntity
8
points
6
ByLayer
62
256
370
-1
100
AcDbPoint
10
89
20
91.95
0
POINT
5
18D
100
AcDbEntity
8
points
6
ByLayer
62
256
370
-1
100
AcDbPoint
10
84
20
90.3
0
POINT
5
18E
100
AcDbEntity
8
points
6
ByLayer
62
256
370
-1
100
AcDbPoint
10
89
20
88.65
0
POINT
5
18F
100
AcDbEntity
8
points
6
ByLayer
62
256
370
-1
100
AcDbPoint
10
84
20
87
0
POINT
5
190
100
AcDbEntity
8
points
6
ByLayer
62
256
370
-1
100
AcDbPoint
10
89
20
85.35
0
POINT
5
191
100
AcDbEntity
8
points
6
ByLayer
62
256
370
-1
100
AcDbPoint
10
84
20
83.7
0
POINT
5
192
100
AcDbEntity
8
points
6
ByLayer
62
256
370
-1
100
AcDbPoint
10
89
20
82.05
0
POINT
5
193
100
AcDbEntity
8
points
6
ByLayer
62
256
370
-1
100
AcDbPoint
10
84
20
80.4
0
POINT
5
194
100
AcDbEntity
8
points
6
ByLayer
62
256
370
-1
100
AcDbPoint
10
89
20
78.75
0
POINT
5
195
100
AcDbEntity
8
points
6
ByLayer
62
256
370
-1
100
AcDbPoint
10
84
20
77.1
0
POINT
5
196
100
AcDbEntity
8
points
6
ByLayer
62
256
370
-1
100
AcDbPoint
10
89
20
75.45
0
POINT
5
197
100
AcDbEntity
8
points
6
ByLayer
62
256
370
-1
100
AcDbPoint
10
84
20
73.8
0
POINT
5
198
100
AcDbEntity
8
points
6
ByLayer
62
256
370
-1
100
AcDbPoint
10
89
20
72.15
0
POINT
5
199
100
AcDbEntity
8
points
6
ByLayer
62
256
370
-1
100
AcDbPoint
10
84
20
70.5
0
POINT
5
19A
100
AcDbEntity
8
points
6
ByLayer
62
256
370
-1
100
AcDbPoint
10
89
20
68.85
0
POINT
5
19B
100
AcDbEntity
8
points
6
ByLayer
62
256
370
-1
100
AcDbPoint
10
84
20
67.2
0
POINT
5
19C
100
AcDbEntity
8
points
6
ByLayer
62
256
370
-1
100
AcDbPoint
10
89
20
65.55
0
POINT
5
19D
100
AcDbEntity
8
points
6
ByLayer
62
256
370
-1
100
AcDbPoint
10
84
20
63.9
0
POINT
5
19E
100
AcDbEntity
8
points
6
ByLayer
62
256
370
-1
100
AcDbPoint
10
89
20
62.25
0
POINT
5
19F
100
AcDbEntity
8
points
6
ByLayer
62
256
370
-1
100
AcDbPoint
10
84
20
60.6
0
POINT
5
1A0
100
AcDbEntity
8
points
6
ByLayer
62
256
370
-1
100
AcDbPoint
10
89
20
58.95
0
POINT
5
1A1
100
AcDbEntity
8
points
6
ByLayer
62
256
370
-1
100
AcDbPoint
10
84
20
57.3
0
POINT
5
1A2
100
AcDbEntity
8
points
6
ByLayer
62
256
370
-1
100
AcDbPoint
10
89
20
55.65
0
POINT
5
1A3
100
AcDbEntity
8
points
6
ByLayer
62
256
370
-1
100
AcDbPoint
10
84
20
54
0
POINT
5
1A4
100
AcDbEntity
8
points
6
ByLayer
62
256
370
-1
100
AcDbPoint
10
89
20
52.35
0
POINT
5
1A5
100
AcDbEntity
8
points
6
ByLayer
62
256
370
-1
100
AcDbPoint
10
84
20
50.7
0
POINT
5
1A6
100
AcDbEntity
8
points
6
ByLayer
62
256
370
-1
100
AcDbPoint
10
89
20
49.05
0
POINT
5
1A7
100
AcDbEntity
8
points
6
ByLayer
62
256
370
-1
100
AcDbPoint
10
84
20
47.4
0
POINT
5
1A8
100
AcDbEntity
8
points
6
ByLayer
62
256
370
-1
100
AcDbPoint
10
89
20
45.75
0
POINT
5
1A9
100
AcDbEntity
8
points
6
ByLayer
62
256
370
-1
100
AcDbPoint
10
84
20
44.1
0
POINT
5
1AA
100
AcDbEntity
8
points
6
ByLayer
62
256
370
-1
100
AcDbPoint
10
89
20
42.45
0
POINT
5
1AB
100
AcDbEntity
8
points
6
ByLayer
62
256
370
-1
100
AcDbPoint
10
84
20
40.8
0
POINT
5
1AC
100
AcDbEntity
8
points
6
ByLayer
62
256
370
-1
100
AcDbPoint
10
89
20
39.15
0
POINT
5
1AD
100
AcDbEntity
8
points
6
ByLayer
62
256
370
-1
100
AcDbPoint
10
84
20
37.5
0
POINT
5
1AE
100
AcDbEntity
8
points
6
ByLayer
62
256
370
-1
100
AcDbPoint
10
89
20
35.85
0
POINT
5
1AF
100
AcDbEntity
8
points
6
ByLayer
62
256
370
-1
100
AcDbPoint
10
84
20
34.2
0
POINT
5
1B0
100
AcDbEntity
8
points
6
ByLayer
62
256
370
-1
100
AcDbPoint
10
89
20
32.55
0
POINT
5
1B1
100
AcDbEntity
8
points
6
ByLayer
62
256
370
-1
100
AcDbPoint
10
84
20
30.9
0
POINT
5
1B2
100
AcDbEntity
8
points
6
ByLayer
62
256
370
-1
100
AcDbPoint
10
89
20
29.25
0
POINT
5
1B3
100
AcDbEntity
8
points
6
ByLayer
62
256
370
-1
100
AcDbPoint
10
84
20
27.6
0
POINT
5
1B4
100
AcDbEntity
8
points
6
ByLayer
62
256
370
-1
100
AcDbPoint
10
89
20
25.95
0
POINT
5
1B5
100
AcDbEntity
8
points
6
ByLayer
62
256
370
-1
100
AcDbPoint
10
84
20
24.3
0
POINT
5
1B6
100
AcDbEntity
8
points
6
ByLayer
62
256
370
-1
100
AcDbPoint
10
89
20
22.65
0
POINT
5
1B7
100
AcDbEntity
8
points
6
ByLayer
62
256
370
-1
100
AcDbPoint
10
84
20
21
0
POINT
5
1B8
100
AcDbEntity
8
points
6
ByLayer
62
256
370
-1
100
AcDbPoint
10
89
20
19.35
0
POINT
5
1B9
100
AcDbEntity
8
points
6
ByLayer
62
256
370
-1
100
AcDbPoint
10
89
20
19.35
0
POINT
5
1BA
100
AcDbEntity
8
points
6
ByLayer
62
256
370
-1
100
AcDbPoint
10
84
20
17.7
0
POINT
5
1BB
100
AcDbEntity
8
points
6
ByLayer
62
256
370
-1
100
AcDbPoint
10
89
20
16.05
0
POINT
5
1BC
100
AcDbEntity
8
points
6
ByLayer
62
256
370
-1
100
AcDbPoint
10
84
20
14.4
0
POINT
5
1BD
100
AcDbEntity
8
points
6
ByLayer
62
256
370
-1
100
AcDbPoint
10
89
20
12.75
0
POINT
5
1BE
100
AcDbEntity
8
points
6
ByLayer
62
256
370
-1
100
AcDbPoint
10
84
20
11.1
0
POINT
5
1BF
100
AcDbEntity
8
points
6
ByLayer
62
256
370
-1
100
AcDbPoint
10
89
20
9.45
0
POINT
5
1C0
100
AcDbEntity
8
points
6
ByLayer
62
256
370
-1
100
AcDbPoint
10
84
20
7.8
0
POINT
5
1C1
100
AcDbEntity
8
points
6
ByLayer
62
256
370
-1
100
AcDbPoint
10
89
20
6.15
0
POINT
5
1C2
100
AcDbEntity
8
points
6
ByLayer
62
256
370
-1
100
AcDbPoint
10
84
20
4.5
0
POINT
5
1C3
100
AcDbEntity
8
points
6
ByLayer
62
256
370
-1
100
AcDbPoint
10
89
20
2.85
0
POINT
5
1C4
100
AcDbEntity
8
0
6
ByLayer
62
256
370
-1
100
AcDbPoint
10
89
20
2.85
0
LINE
5
1C5
100
AcDbEntity
8
border
6
ByLayer
62
256
370
-1
100
AcDbLine
10
0
20
0
11
94
21
0
0
LINE
5
1C6
100
AcDbEntity
8
border
6
ByLayer
62
256
370
-1
100
AcDbLine
10
94
20
0
11
94
21
102.7
0
LINE
5
1C7
100
AcDbEntity
8
border
6
ByLayer
62
256
370
-1
100
AcDbLine
10
94
20
102.7
11
0
21
102.7
0
LINE
5
1C8
100
AcDbEntity
8
border
6
ByLayer
62
256
370
-1
100
AcDbLine
10
0
20
102.7
11
0
21
0
0
MTEXT
5
1C9
100
AcDbEntity
8
legend
6
ByLayer
62
256
370
-1
100
AcDbMText
10
50
20
70
30
0
40
5
41
31.5277803492
71
5
72
1
1
Glue dots
7
standard
210
0
220
0
230
1
50
0
73
2
44
1
0
LEADER
5
1CA
100
AcDbEntity
8
legend
6
ByLayer
62
256
370
-1
100
AcDbLeader
3
Standard
71
1
72
0
73
3
74
0
75
0
40
1
41
10
76
4
76
4
10
10
20
39.15
30
0
10
40
20
60
30
0
10
49
20
66
30
0
10
49
20
66
30
0
0
LEADER
5
1CB
100
AcDbEntity
8
legend
6
ByLayer
62
256
370
-1
100
AcDbLeader
3
Standard
71
1
72
0
73
3
74
0
75
0
40
1
41
10
76
0
76
0
0
LEADER
5
1CC
100
AcDbEntity
8
legend
6
ByLayer
62
256
370
-1
100
AcDbLeader
3
Standard
71
1
72
0
73
3
74
0
75
0
40
1
41
10
76
4
76
4
10
10
20
55.65
30
0
10
49
20
66
30
0
10
49
20
66
30
0
10
49
20
66
30
0
0
ENDSEC
0
SECTION
2
OBJECTS
0
DICTIONARY
5
C
330
0
100
AcDbDictionary
281
1
3
ACAD_GROUP
350
D
0
DICTIONARY
5
D
330
C
100
AcDbDictionary
281
1
0
ENDSEC
0
EOF
